<?xml version="1.0" standalone="no"?>
<!DOCTYPE svg PUBLIC "-//W3C//DTD SVG 20010904//EN"
 "http://www.w3.org/TR/2001/REC-SVG-20010904/DTD/svg10.dtd">
<svg version="1.0" xmlns="http://www.w3.org/2000/svg"
 width="204.000000pt" height="98.000000pt" viewBox="0 0 204.000000 98.000000"
 preserveAspectRatio="xMidYMid meet">

<g transform="translate(0.000000,98.000000) scale(0.100000,-0.100000)"
fill="#8B0000" stroke="none">
<path d="M466 952 c-3 -5 -8 -28 -12 -51 l-7 -41 -181 2 -180 3 -12 40 c-8 29
-16 40 -30 40 -16 0 -19 -9 -22 -54 -5 -91 -4 -91 230 -91 l199 0 -3 -42 -3
-43 -194 -3 c-234 -3 -231 -2 -231 -102 0 -96 11 -104 153 -110 l112 -5 0 -35
0 -35 -117 -5 c-124 -5 -152 -15 -132 -48 9 -14 31 -17 138 -20 124 -3 127 -2
152 23 24 24 26 32 22 90 -6 97 -17 105 -148 105 -112 0 -130 6 -130 47 0 38
28 44 207 41 l168 -3 5 -142 c5 -144 13 -172 44 -160 14 5 16 28 16 145 0 94
4 142 12 150 8 8 62 12 178 12 185 0 204 -5 198 -55 l-3 -30 -117 -3 c-113 -3
-118 -4 -138 -29 -31 -39 -28 -126 5 -158 23 -24 30 -25 144 -25 133 0 151 4
151 31 0 24 -21 28 -150 32 l-105 2 0 35 0 35 118 5 c110 5 120 7 138 29 32
39 23 148 -15 173 -6 4 -97 8 -202 8 -199 0 -214 3 -214 45 0 42 15 45 215 45
218 0 224 2 232 71 6 54 -15 91 -40 70 -9 -7 -17 -27 -19 -44 l-3 -32 -184 -3
c-198 -3 -201 -2 -201 49 0 35 -30 63 -44 41z"/>
<path d="M1107 942 c-15 -17 -17 -63 -17 -454 0 -429 0 -435 21 -454 20 -18
44 -19 418 -22 218 -2 411 0 429 3 18 3 42 15 53 26 18 18 19 36 19 449 0 417
-1 431 -20 450 -19 19 -33 20 -453 20 -408 0 -435 -1 -450 -18z m411 -79 l3
-33 -153 0 c-84 0 -159 -4 -166 -9 -8 -5 -12 -17 -10 -27 3 -17 15 -19 143
-21 172 -3 185 -6 185 -37 l0 -25 -155 -3 c-157 -3 -184 -10 -172 -42 6 -14
49 -16 367 -16 318 0 361 2 367 16 12 32 -15 39 -177 42 -124 3 -160 6 -164
17 -3 8 2 21 10 30 13 12 45 15 170 15 134 0 155 2 161 16 13 35 -23 44 -183
44 -145 0 -153 1 -159 20 -14 44 6 50 179 50 130 0 166 -3 184 -16 l22 -15 0
-384 0 -384 -22 -15 c-32 -23 -753 -24 -784 -2 -18 14 -19 30 -19 399 0 313 3
387 14 401 12 14 35 16 185 14 l171 -3 3 -32z"/>
<path d="M1216 579 c-23 -18 -26 -28 -26 -78 0 -44 5 -65 21 -85 l20 -26 325
0 c382 0 364 -5 364 105 0 110 17 105 -359 105 -307 0 -319 -1 -345 -21z m644
-64 c10 -26 4 -55 -14 -67 -15 -11 -568 -10 -584 1 -14 9 -19 61 -8 80 5 8 91
11 302 11 l294 0 10 -25z"/>
<path d="M1210 320 c-17 -17 -20 -33 -20 -97 0 -84 9 -109 33 -100 14 5 20 29
29 117 3 24 5 25 88 25 l85 0 5 -52 c8 -76 24 -88 118 -87 100 0 119 11 127
72 4 26 8 53 10 60 6 17 159 17 173 0 5 -7 10 -37 10 -66 0 -57 11 -78 36 -69
13 5 16 23 16 92 0 120 -6 125 -149 125 -130 0 -155 -12 -153 -74 1 -20 -3
-47 -8 -61 -8 -21 -16 -25 -53 -25 -55 0 -67 13 -67 70 0 25 -7 56 -16 68 -14
21 -23 22 -130 22 -101 0 -116 -2 -134 -20z"/>
<path d="M903 301 c-5 -21 -9 -21 -414 -21 -364 0 -409 2 -417 16 -5 9 -18 14
-28 12 -17 -3 -19 -15 -22 -129 -2 -117 -1 -127 19 -145 20 -18 42 -19 430
-22 443 -3 472 0 484 50 3 13 4 75 3 138 -3 112 -4 115 -26 118 -17 3 -25 -2
-29 -17z m-5 -148 c5 -86 18 -83 -411 -83 -229 0 -375 4 -387 10 -24 13 -36
74 -21 106 l11 24 402 -2 403 -3 3 -52z"/>
</g>
</svg>
