<?xml version="1.0" standalone="no"?>
<!DOCTYPE svg PUBLIC "-//W3C//DTD SVG 20010904//EN"
 "http://www.w3.org/TR/2001/REC-SVG-20010904/DTD/svg10.dtd">
<svg version="1.0" xmlns="http://www.w3.org/2000/svg"
 width="392.000000pt" height="98.000000pt" viewBox="0 0 392.000000 98.000000"
 preserveAspectRatio="xMidYMid meet">

<g transform="translate(0.000000,98.000000) scale(0.100000,-0.100000)"
fill="#3B0000" stroke="none">
<path d="M2688 954 c-41 -50 -40 -49 -193 -62 -147 -12 -248 -31 -268 -51 -15
-15 0 -41 22 -41 11 0 46 7 78 15 31 8 74 15 95 15 27 0 38 -4 38 -15 0 -10
-10 -15 -27 -15 -16 0 -47 -9 -70 -20 -47 -21 -62 -54 -43 -90 13 -24 67 -50
105 -50 16 0 25 -6 25 -15 0 -8 -6 -15 -12 -15 -30 0 -91 -23 -109 -41 -46
-46 -4 -109 81 -117 59 -5 64 -16 14 -32 -84 -28 -149 -119 -185 -258 -23 -91
-24 -121 -3 -129 24 -9 34 8 45 76 21 130 64 213 130 250 20 12 42 21 48 21 8
0 11 -51 11 -169 0 -135 3 -171 15 -181 30 -25 35 0 35 176 0 115 4 174 10
174 20 0 65 -28 91 -57 48 -51 73 -117 94 -246 6 -40 28 -58 48 -38 17 17 -7
160 -39 232 -33 74 -96 132 -159 148 -51 13 -60 31 -15 31 45 0 106 28 120 56
27 49 -19 90 -112 101 -59 7 -59 26 1 34 59 8 96 38 96 79 0 41 -34 69 -93 77
-31 4 -42 10 -42 23 0 14 13 19 68 25 75 8 113 24 136 57 21 30 20 45 -4 58
-14 8 -22 6 -32 -6z m-137 -204 c14 0 34 -6 45 -14 18 -14 18 -16 2 -32 -14
-14 -35 -18 -95 -19 -43 0 -90 3 -105 8 -29 8 -37 30 -15 44 16 10 97 22 122
17 11 -2 32 -4 46 -4z m40 -200 c28 -15 23 -38 -8 -47 -37 -10 -141 -10 -175
0 -32 8 -37 31 -10 46 22 14 168 14 193 1z"/>
<path d="M1287 954 c-4 -4 -7 -34 -7 -65 l0 -59 -52 -26 c-77 -39 -108 -63
-108 -85 0 -23 32 -26 50 -4 18 22 33 19 64 -14 l27 -28 -43 -26 c-53 -31
-102 -82 -94 -96 12 -20 39 -12 73 21 19 18 64 51 101 73 74 44 95 77 73 117
-6 13 -19 36 -27 51 -24 43 -12 57 45 57 52 0 70 12 52 34 -8 9 -27 12 -60 8
-46 -4 -50 -3 -53 19 -3 23 -27 37 -41 23z m37 -196 c8 -13 8 -23 0 -35 -17
-28 -31 -26 -54 8 -19 25 -20 33 -9 40 20 13 50 7 63 -13z"/>
<path d="M3337 934 c-4 -4 -7 -15 -7 -25 0 -10 -15 -25 -37 -36 -33 -16 -38
-23 -41 -56 -4 -44 16 -74 52 -79 27 -4 28 -31 1 -36 -35 -7 -55 -33 -55 -73
0 -42 29 -79 62 -79 27 0 22 -17 -17 -51 -19 -17 -39 -47 -45 -67 -16 -58 -32
-370 -19 -394 24 -44 34 -11 41 133 8 162 21 254 40 277 11 12 14 -24 18 -204
5 -211 6 -219 25 -219 19 0 20 8 25 220 l5 220 18 -39 c17 -35 35 -220 37
-368 0 -22 5 -28 21 -28 22 0 22 1 16 178 -6 201 -15 244 -63 289 -37 34 -43
53 -19 53 29 0 65 47 65 83 0 36 -19 60 -57 71 -29 9 -30 36 -3 36 26 0 70 43
70 68 0 30 -38 72 -65 72 -18 0 -24 6 -27 27 -3 27 -26 41 -41 27z m71 -96
c32 -32 1 -68 -57 -68 -28 0 -61 21 -61 40 0 34 91 55 118 28z m2 -183 c10
-12 10 -21 2 -40 -10 -21 -18 -25 -56 -25 -35 0 -48 5 -56 19 -13 25 -13 27 6
45 20 21 88 21 104 1z"/>
<path d="M3657 924 c-3 -3 -2 -17 4 -31 18 -48 14 -51 -70 -59 -81 -7 -104
-20 -75 -45 9 -8 36 -10 79 -7 36 3 65 2 65 -3 0 -5 -17 -20 -39 -34 -85 -57
-80 -154 9 -172 17 -3 30 -9 30 -13 0 -5 -19 -28 -43 -53 -33 -33 -48 -60 -62
-108 -22 -79 -34 -312 -16 -323 28 -18 38 15 44 137 8 174 36 251 92 257 64 7
75 -15 39 -70 -20 -30 -26 -52 -26 -87 2 -84 92 -232 164 -269 27 -14 32 -14
45 -1 13 13 7 23 -50 85 -107 117 -131 193 -82 258 33 43 33 86 -1 113 -15 12
-36 21 -46 21 -14 0 -18 5 -14 16 3 9 6 19 6 24 0 4 16 10 36 13 52 9 74 32
74 79 0 48 -43 98 -84 98 -16 0 -26 6 -26 15 0 11 18 15 83 17 76 3 82 5 85
26 3 20 -1 22 -40 22 -24 0 -60 3 -80 6 -32 6 -38 11 -38 31 0 34 -18 63 -39
63 -10 0 -20 -3 -24 -6z m68 -218 c43 -18 58 -62 29 -83 -30 -22 -113 -13
-131 14 -14 21 -13 25 17 53 37 35 39 35 85 16z"/>
<path d="M507 904 c-4 -4 -7 -117 -7 -251 l0 -243 -30 0 c-30 0 -30 0 -30 59
0 63 -11 81 -35 61 -13 -10 -14 -41 -9 -189 7 -184 14 -216 56 -245 29 -21
117 -21 146 0 46 32 52 61 52 253 0 114 -4 182 -10 186 -23 14 -40 -17 -40
-71 0 -51 -1 -54 -25 -54 l-25 0 0 115 0 115 53 0 c59 0 83 11 74 34 -5 12
-21 16 -66 16 l-60 0 -3 107 c-2 88 -6 108 -18 111 -9 1 -19 0 -23 -4z m93
-637 c0 -114 -12 -137 -71 -137 -58 0 -79 26 -79 98 0 31 -3 74 -6 95 l-7 37
82 0 81 0 0 -93z"/>
<path d="M1463 894 c-9 -25 16 -34 95 -34 69 0 72 -1 72 -23 0 -13 -2 -26 -5
-28 -2 -3 -37 -2 -77 3 -85 9 -108 4 -108 -23 0 -17 7 -19 69 -19 39 0 72 -4
75 -9 7 -11 -30 -44 -72 -65 -38 -19 -38 -40 0 -44 15 -2 44 10 77 32 57 38
56 39 65 -37 11 -93 59 -168 88 -139 8 8 5 25 -10 59 -11 26 -25 81 -31 122
-5 40 -14 78 -19 83 -6 6 -7 22 -1 41 13 45 11 55 -11 77 -17 17 -33 20 -110
20 -74 0 -92 -3 -97 -16z"/>
<path d="M60 887 c-24 -12 -25 -17 -28 -120 -3 -108 -3 -108 27 -137 18 -19
44 -32 70 -36 36 -6 41 -10 41 -34 0 -26 -3 -28 -56 -33 -99 -10 -101 -47 -3
-47 l59 0 0 -39 0 -39 -70 -7 c-72 -7 -89 -17 -72 -38 7 -8 57 -12 169 -12
153 0 158 1 161 21 3 24 -27 34 -99 34 -39 0 -39 0 -39 40 l0 40 60 0 c53 0
60 2 60 20 0 16 -9 20 -60 26 -57 6 -60 8 -60 34 0 25 4 28 46 35 68 10 90 37
99 119 9 78 2 153 -14 169 -18 18 -259 21 -291 4z m110 -143 l0 -106 -32 6
c-17 3 -37 11 -45 17 -15 13 -18 43 -3 34 6 -4 22 1 36 10 21 14 25 23 22 58
-4 55 -32 59 -36 5 -3 -38 -28 -59 -39 -32 -6 15 3 90 13 106 3 4 23 8 45 8
l39 0 0 -106z m134 100 c13 -5 16 -22 16 -83 0 -86 -4 -95 -43 -110 -56 -22
-57 -20 -57 94 l0 105 34 0 c19 0 41 -3 50 -6z"/>
<path d="M240 767 c0 -48 13 -67 47 -67 26 0 32 25 8 34 -8 3 -15 14 -15 25 0
30 -11 51 -26 51 -10 0 -14 -13 -14 -43z"/>
<path d="M1273 567 c-90 -64 -143 -109 -143 -119 0 -10 6 -18 14 -18 8 0 76
41 151 90 l136 90 133 -90 c73 -49 140 -90 149 -90 25 0 29 16 9 38 -20 23
-286 202 -298 201 -5 0 -73 -46 -151 -102z"/>
<path d="M1355 531 c-26 -4 -40 -11 -40 -21 0 -12 18 -16 94 -18 91 -3 127 7
106 27 -14 12 -112 20 -160 12z"/>
<path d="M1323 453 c-59 -6 -87 -41 -80 -103 3 -28 12 -50 26 -61 25 -21 134
-33 204 -24 48 7 51 6 37 -10 -8 -10 -34 -26 -58 -36 -49 -21 -52 -46 -6 -41
94 9 89 11 86 -32 -2 -28 2 -44 18 -61 26 -27 134 -78 157 -73 35 7 21 28 -36
53 -78 36 -98 57 -83 90 14 30 7 52 -19 60 -15 5 -17 10 -9 25 6 11 9 23 8 27
-1 4 4 19 12 33 21 38 17 107 -7 131 -17 17 -36 21 -114 24 -52 1 -113 1 -136
-2z m208 -43 c42 -23 16 -30 -112 -30 -100 0 -130 3 -127 13 3 6 18 15 34 18
48 11 184 10 205 -1z m9 -80 c-10 -18 -21 -20 -111 -20 -96 0 -139 9 -139 30
0 6 53 10 130 10 128 0 130 0 120 -20z"/>
<path d="M182 293 c-5 -10 -15 -36 -22 -58 -7 -22 -26 -66 -41 -97 -33 -65
-36 -93 -13 -102 14 -6 31 24 80 143 9 21 13 16 39 -55 24 -63 35 -80 53 -82
17 -3 22 2 22 18 0 12 -5 31 -12 43 -6 12 -26 62 -43 111 -32 92 -47 111 -63
79z"/>
<path d="M64 253 c-8 -21 -23 -55 -34 -75 -25 -46 -25 -58 -1 -58 38 0 103
128 80 156 -18 22 -29 16 -45 -23z"/>
<path d="M284 275 c-4 -9 4 -44 17 -77 25 -64 50 -91 69 -72 8 8 2 32 -19 85
-29 73 -55 97 -67 64z"/>
<path d="M1261 251 c-29 -19 -40 -143 -15 -179 20 -29 52 -28 136 4 51 19 68
30 68 45 0 23 -10 24 -58 3 -103 -45 -114 -38 -105 58 6 65 -1 84 -26 69z"/>
</g>
</svg>
