<?xml version="1.0" standalone="no"?>
<!DOCTYPE svg PUBLIC "-//W3C//DTD SVG 20010904//EN"
 "http://www.w3.org/TR/2001/REC-SVG-20010904/DTD/svg10.dtd">
<svg version="1.0" xmlns="http://www.w3.org/2000/svg"
 width="95.000000pt" height="95.000000pt" viewBox="0 0 95.000000 95.000000"
 preserveAspectRatio="xMidYMid meet">

<g transform="translate(0.000000,95.000000) scale(0.100000,-0.100000)"
fill="#8B0000" stroke="none">
<path d="M456 942 c-3 -5 -8 -28 -12 -51 l-7 -41 -181 2 -180 3 -12 40 c-8 29
-16 40 -30 40 -16 0 -19 -9 -22 -54 -5 -91 -4 -91 230 -91 l199 0 -3 -42 -3
-43 -194 -3 c-234 -3 -231 -2 -231 -102 0 -96 11 -104 153 -110 l112 -5 0 -35
0 -35 -117 -5 c-124 -5 -152 -15 -132 -48 9 -14 31 -17 138 -20 124 -3 127 -2
152 23 24 24 26 32 22 90 -6 97 -17 105 -148 105 -112 0 -130 6 -130 47 0 38
28 44 207 41 l168 -3 5 -142 c5 -144 13 -172 44 -160 14 5 16 28 16 145 0 94
4 142 12 150 8 8 62 12 178 12 185 0 204 -5 198 -55 l-3 -30 -117 -3 c-113 -3
-118 -4 -138 -29 -31 -39 -28 -126 5 -158 23 -24 30 -25 144 -25 133 0 151 4
151 31 0 24 -21 28 -150 32 l-105 2 0 35 0 35 118 5 c110 5 120 7 138 29 32
39 23 148 -15 173 -6 4 -97 8 -202 8 -199 0 -214 3 -214 45 0 42 15 45 215 45
218 0 224 2 232 71 6 54 -15 91 -40 70 -9 -7 -17 -27 -19 -44 l-3 -32 -184 -3
c-198 -3 -201 -2 -201 49 0 35 -30 63 -44 41z"/>
<path d="M893 291 c-5 -21 -9 -21 -414 -21 -364 0 -409 2 -417 16 -5 9 -18 14
-28 12 -17 -3 -19 -15 -22 -129 -2 -117 -1 -127 19 -145 20 -18 42 -19 430
-22 443 -3 472 0 484 50 3 13 4 75 3 138 -3 112 -4 115 -26 118 -17 3 -25 -2
-29 -17z m-5 -148 c5 -86 18 -83 -411 -83 -229 0 -375 4 -387 10 -24 13 -36
74 -21 106 l11 24 402 -2 403 -3 3 -52z"/>
</g>
</svg>
